# xmcd
#
# Track frame offsets: 
#        150
#        4780
#        20814
#        31247
#        42644
#        47652
#        58769
#        84106
#        113041
#        122830
#        134265
#        143864
#        162375
#        183083
#
# Disc length: 2569 seconds
#
# Revision: 2
# Processed by: cddbd v1.5.2PL0 Copyright (c) Steve Scherf et al.
# Submitted via: ExactAudioCopy v1.0b3
#
DISCID=b90a070e
DTITLE=Converge - You Fail Me
DYEAR=2004
DGENRE=Hardcore
TTITLE0=First Light
TTITLE1=Last Light
TTITLE2=Black Cloud
TTITLE3=Drop Out
TTITLE4=Hope Street
TTITLE5=Heartless
TTITLE6=You Fail Me
TTITLE7=In Her Shadow
TTITLE8=Eagles Become Vultures
TTITLE9=Wolves at My Door
TTITLE10=Death King
TTITLE11=In Her Blood
TTITLE12=Hanging Moom
TTITLE13=Cd Extra
EXTD=YEAR: 2004
EXTT0=
EXTT1=
EXTT2=
EXTT3=
EXTT4=
EXTT5=
EXTT6=
EXTT7=
EXTT8=
EXTT9=
EXTT10=
EXTT11=
EXTT12=
EXTT13=
PLAYORDER=
